<?xml version="1.0" encoding="UTF-8" standalone="no"?>
<!-- Created with Inkscape (http://www.inkscape.org/) -->

<svg
   width="192"
   height="48"
   viewBox="0 0 192 48"
   version="1.1"
   id="svg1"
   inkscape:version="1.3.2 (091e20ef0f, 2023-11-25)"
   sodipodi:docname="ball.svg"
   xmlns:inkscape="http://www.inkscape.org/namespaces/inkscape"
   xmlns:sodipodi="http://sodipodi.sourceforge.net/DTD/sodipodi-0.dtd"
   xmlns:xlink="http://www.w3.org/1999/xlink"
   xmlns="http://www.w3.org/2000/svg"
   xmlns:svg="http://www.w3.org/2000/svg">
  <sodipodi:namedview
     id="namedview1"
     pagecolor="#ffffff"
     bordercolor="#000000"
     borderopacity="0.25"
     inkscape:showpageshadow="2"
     inkscape:pageopacity="0.0"
     inkscape:pagecheckerboard="0"
     inkscape:deskcolor="#d1d1d1"
     inkscape:document-units="px"
     inkscape:zoom="4.0063432"
     inkscape:cx="90.980722"
     inkscape:cy="-5.1168856"
     inkscape:window-width="1920"
     inkscape:window-height="1131"
     inkscape:window-x="0"
     inkscape:window-y="0"
     inkscape:window-maximized="1"
     inkscape:current-layer="layer1" />
  <defs
     id="defs1">
    <linearGradient
       id="linearGradient1"
       inkscape:collect="always">
      <stop
         style="stop-color:#93cdda;stop-opacity:1;"
         offset="0"
         id="stop1" />
      <stop
         style="stop-color:#56b5cd;stop-opacity:1;"
         offset="0.49382848"
         id="stop3" />
      <stop
         style="stop-color:#37abc8;stop-opacity:1;"
         offset="1"
         id="stop2" />
    </linearGradient>
    <radialGradient
       inkscape:collect="always"
       xlink:href="#linearGradient1"
       id="radialGradient2"
       cx="4.5740199"
       cy="9.2061405"
       fx="4.5740199"
       fy="9.2061405"
       r="6.3500004"
       gradientUnits="userSpaceOnUse"
       gradientTransform="matrix(3.0301485,0.89867415,-0.74119586,2.4991633,10.391172,9.0016532)" />
    <radialGradient
       inkscape:collect="always"
       xlink:href="#linearGradient1"
       id="radialGradient2-7-3-1-4-1"
       cx="4.5740199"
       cy="9.2061405"
       fx="4.5740199"
       fy="9.2061405"
       r="6.3500004"
       gradientUnits="userSpaceOnUse"
       gradientTransform="matrix(3.0301791,0.89868323,-0.74120335,2.4991885,106.40462,11.466806)" />
    <radialGradient
       inkscape:collect="always"
       xlink:href="#linearGradient1"
       id="radialGradient2-7-3-1-4-5"
       cx="4.5740199"
       cy="9.2061405"
       fx="4.5740199"
       fy="9.2061405"
       r="6.3500004"
       gradientUnits="userSpaceOnUse"
       gradientTransform="matrix(3.0301791,0.89868323,-0.74120335,2.4991885,58.32416,11.223055)" />
    <radialGradient
       inkscape:collect="always"
       xlink:href="#linearGradient1"
       id="radialGradient2-7-3-1-4-1-3"
       cx="4.5740199"
       cy="9.2061405"
       fx="4.5740199"
       fy="9.2061405"
       r="6.3500004"
       gradientUnits="userSpaceOnUse"
       gradientTransform="matrix(3.0301791,0.89868323,-0.74120335,2.4991885,154.40462,11.466806)" />
  </defs>
  <g
     inkscape:label="ball"
     inkscape:groupmode="layer"
     id="layer1">
    <circle
       style="fill:url(#radialGradient2);stroke:#006680;stroke-width:3.77357;stroke-linejoin:miter;stroke-dasharray:none;stroke-opacity:1;paint-order:normal"
       id="path1"
       cx="24"
       cy="28"
       r="18.113214" />
    <path
       id="path1-2-6-0-0-0"
       style="fill:url(#radialGradient2-7-3-1-4-1);stroke:#006680;stroke-width:3.77404;stroke-linejoin:round;stroke-dasharray:none;stroke-opacity:1;paint-order:normal"
       d="m 119.90189,12.88702 c -10.00322,-2.9e-5 -18.01408,8.366548 -18.01487,16.333973 0.002,4.210404 1.63512,10.012045 4.09268,12.49361 -0.45377,-0.0022 -0.28336,4.384925 -3.94612,6.499619 l 35.55652,-0.02084 c -4.18649,-2.417072 -3.35707,-6.709744 -3.745,-6.709744 2.94629,-2.946294 4.26675,-8.104444 4.26884,-12.262641 -7.9e-4,-7.967425 -8.20883,-16.334002 -18.21205,-16.333973 z"
       sodipodi:nodetypes="ccccccccc" />
    <path
       id="path1-2-6-0-0-5"
       style="fill:url(#radialGradient2-7-3-1-4-5);stroke:#006680;stroke-width:3.77404;stroke-linejoin:round;stroke-dasharray:none;stroke-opacity:1;paint-order:normal"
       d="m 71.855005,11.595244 c -10.00322,-2.9e-5 -18.01408,8.366548 -18.01487,16.333973 0.002,4.210404 1.306971,10.260881 2.795365,13.070783 0,0 1.875593,3.653921 3.806525,6.998394 l 22.124733,-0.08979 c 2.097991,-3.633826 4.197919,-6.866592 4.197919,-6.866592 1.584069,-2.509862 3.300288,-8.954599 3.302378,-13.112796 -7.9e-4,-7.967425 -8.20883,-16.334002 -18.21205,-16.333972 z"
       sodipodi:nodetypes="cccccccc" />
    <path
       id="path1-2-6-0-0-0-5"
       style="fill:url(#radialGradient2-7-3-1-4-1-3);stroke:#006680;stroke-width:3.77404;stroke-linejoin:round;stroke-dasharray:none;stroke-opacity:1;paint-order:normal"
       d="m 148,48.214 40.18549,-0.02062 c 0,0 -3.17393,-6.781344 -2.19733,-14.027021 -7.9e-4,-7.967425 -7.90769,-13.83637 -17.91091,-13.836372 -10.00322,-2e-6 -17.9805,5.761046 -17.96262,13.824869 C 150.83711,42.685806 148.22526,48.442438 148,48.214 Z"
       sodipodi:nodetypes="cccccc" />
  </g>
</svg>
